<svg xmlns="http://www.w3.org/2000/svg" xmlns:xlink="http://www.w3.org/1999/xlink" width="500" zoomAndPan="magnify" viewBox="0 0 375 97.5" height="130" preserveAspectRatio="xMidYMid meet" version="1.0"><defs><g/><clipPath id="e6fa657a36"><path d="M 26 0 L 96 0 L 96 66 L 26 66 Z M 26 0 " clip-rule="nonzero"/></clipPath><clipPath id="5e7176a259"><path d="M -1.355469 -31.238281 L 123.253906 -31.457031 L 123.480469 96.886719 L -1.132812 97.101562 Z M -1.355469 -31.238281 " clip-rule="nonzero"/></clipPath><clipPath id="8f4c87f6bf"><path d="M 0.957031 20 L 121.835938 20 L 121.835938 96.257812 L 0.957031 96.257812 Z M 0.957031 20 " clip-rule="nonzero"/></clipPath><clipPath id="9dfbfdf64e"><path d="M -1.355469 -31.238281 L 123.253906 -31.457031 L 123.480469 96.886719 L -1.132812 97.101562 Z M -1.355469 -31.238281 " clip-rule="nonzero"/></clipPath></defs><g clip-path="url(#e6fa657a36)"><g clip-path="url(#5e7176a259)"><path fill="#5170ff" d="M 63.050781 7.109375 C 62.90625 7.414062 62.699219 7.683594 62.429688 7.898438 C 62.0625 8.195312 61.570312 8.378906 60.957031 8.378906 C 60.347656 8.378906 59.863281 8.199219 59.484375 7.90625 C 59.214844 7.691406 59.007812 7.421875 58.863281 7.113281 C 58.691406 6.792969 58.601562 6.421875 58.601562 6.027344 C 58.597656 5.632812 58.699219 5.265625 58.859375 4.941406 C 59.191406 4.222656 59.890625 3.671875 60.949219 3.667969 C 62 3.667969 62.703125 4.214844 63.035156 4.933594 C 63.207031 5.257812 63.308594 5.625 63.308594 6.019531 C 63.308594 6.414062 63.210938 6.785156 63.039062 7.109375 Z M 44.5625 51.179688 C 48.289062 49.582031 51.148438 46.34375 52.230469 42.367188 L 48.058594 42.375 L 47.425781 40.039062 L 46.921875 38.15625 L 42.578125 22.050781 L 42.535156 21.890625 C 43.082031 21.160156 43.339844 20.324219 43.347656 19.496094 L 56.503906 19.472656 C 56.539062 19.71875 56.59375 19.949219 56.664062 20.183594 C 56.902344 20.949219 57.332031 21.621094 57.910156 22.148438 L 57.578125 22.148438 L 57.636719 55.992188 C 55.140625 57.117188 53.285156 59.429688 52.8125 62.21875 C 52.792969 62.332031 52.777344 62.441406 52.757812 62.558594 L 44.574219 62.574219 L 44.578125 65.898438 L 77.566406 65.839844 L 77.558594 62.515625 L 69.375 62.53125 C 69.355469 62.414062 69.335938 62.304688 69.320312 62.1875 C 68.984375 60.265625 68 58.578125 66.597656 57.339844 C 65.96875 56.785156 65.246094 56.328125 64.472656 55.976562 L 64.414062 22.136719 L 64.082031 22.140625 C 64.816406 21.445312 65.328125 20.511719 65.46875 19.457031 L 78.625 19.4375 C 78.636719 20.261719 78.90625 21.097656 79.449219 21.824219 L 79.402344 21.988281 L 75.511719 36.632812 L 74.992188 38.589844 L 73.992188 42.332031 L 69.824219 42.335938 C 69.941406 42.75 70.066406 43.15625 70.222656 43.550781 C 70.292969 43.730469 70.355469 43.910156 70.4375 44.078125 C 70.898438 45.15625 71.5 46.152344 72.214844 47.058594 C 73.210938 48.324219 74.425781 49.402344 75.804688 50.242188 C 76.351562 50.574219 76.917969 50.871094 77.511719 51.121094 C 79.132812 51.808594 80.910156 52.183594 82.78125 52.179688 C 88.960938 52.171875 94.167969 47.984375 95.710938 42.285156 L 91.542969 42.289062 L 90.429688 38.152344 L 88.511719 31.054688 L 86.015625 21.804688 C 87.433594 19.90625 86.933594 17.265625 85.082031 15.972656 C 84.386719 15.488281 83.570312 15.230469 82.722656 15.234375 C 81.84375 15.234375 81.171875 15.558594 81.117188 15.539062 L 81.109375 15.566406 C 80.839844 15.683594 80.585938 15.828125 80.355469 15.992188 L 69.714844 16.011719 C 69.703125 15.597656 69.597656 15.203125 69.425781 14.859375 C 69.171875 14.367188 68.757812 13.960938 68.265625 13.703125 C 67.902344 13.515625 67.492188 13.417969 67.058594 13.417969 L 63.984375 13.421875 L 63.980469 10.375 L 63.847656 10.378906 C 64.0625 10.234375 64.269531 10.078125 64.457031 9.910156 C 65.523438 8.945312 66.195312 7.5625 66.191406 6.015625 C 66.1875 3.128906 63.839844 0.789062 60.953125 0.792969 C 56.039062 0.804688 54 6.890625 57.472656 9.929688 C 57.664062 10.089844 57.871094 10.253906 58.085938 10.394531 L 57.953125 10.394531 L 57.957031 13.441406 L 54.882812 13.449219 C 54.453125 13.449219 54.039062 13.558594 53.679688 13.738281 C 53.1875 13.988281 52.773438 14.402344 52.523438 14.898438 C 52.34375 15.25 52.246094 15.636719 52.238281 16.050781 L 41.597656 16.066406 C 41.363281 15.90625 41.113281 15.761719 40.84375 15.648438 L 40.832031 15.621094 C 40.78125 15.636719 40.105469 15.316406 39.226562 15.316406 C 39.125 15.316406 37.652344 15.472656 37.609375 15.652344 C 35.15625 16.707031 34.34375 19.773438 35.949219 21.902344 L 33.484375 31.160156 L 31.589844 38.253906 L 30.492188 42.398438 L 26.324219 42.40625 C 27.886719 48.089844 33.105469 52.269531 39.289062 52.257812 C 41.160156 52.253906 42.9375 51.863281 44.554688 51.179688 Z M 46.335938 42.378906 L 32.226562 42.402344 L 32.96875 39.625 L 35.84375 28.8125 L 37.359375 23.09375 C 38.539062 23.703125 39.949219 23.699219 41.125 23.085938 L 41.214844 23.417969 L 45.558594 39.523438 L 45.710938 40.097656 L 46.324219 42.378906 Z M 86.304688 42.308594 L 75.71875 42.328125 L 80.769531 23.351562 L 80.859375 23.015625 C 82.039062 23.625 83.449219 23.625 84.625 23.011719 L 86.164062 28.722656 L 89.074219 39.527344 L 89.824219 42.304688 Z M 86.304688 42.308594 " fill-opacity="1" fill-rule="evenodd"/></g></g><g clip-path="url(#8f4c87f6bf)"><g clip-path="url(#9dfbfdf64e)"><path fill="#000000" d="M 104.066406 20.308594 L 93.460938 25.519531 L 93.46875 29.691406 L 100.535156 26.34375 L 100.613281 70.257812 C 94.878906 70.761719 89.203125 72.316406 83.582031 74.753906 C 82.765625 75.113281 81.941406 75.492188 81.125 75.890625 C 77.757812 77.511719 74.40625 79.441406 71.078125 81.648438 C 70.101562 82.296875 69.121094 82.972656 68.144531 83.664062 C 65.792969 85.339844 63.449219 87.144531 61.109375 89.0625 C 60.109375 88.246094 59.101562 87.445312 58.09375 86.667969 C 56.84375 85.699219 55.582031 84.765625 54.324219 83.878906 C 53.53125 83.3125 52.730469 82.765625 51.941406 82.230469 C 51.578125 81.988281 51.210938 81.746094 50.851562 81.503906 C 41.226562 75.230469 31.476562 71.230469 21.546875 70.394531 L 21.472656 26.480469 L 28.546875 29.804688 L 28.539062 25.632812 L 17.917969 20.457031 L 18.011719 73.105469 C 24.71875 74.40625 31.386719 75.769531 37.25 78.390625 C 38.132812 78.785156 38.996094 79.207031 39.839844 79.664062 C 41.539062 80.578125 43.152344 81.625 44.664062 82.84375 C 43.0625 82.109375 41.460938 81.421875 39.84375 80.796875 C 38.988281 80.464844 38.132812 80.140625 37.269531 79.839844 C 34.320312 78.800781 31.335938 77.945312 28.316406 77.273438 C 27.550781 77.105469 26.789062 76.953125 26.015625 76.8125 C 22.304688 76.117188 18.527344 75.710938 14.691406 75.617188 C 12.691406 62.0625 10.3125 48.535156 5.257812 35.261719 L 14.207031 35.246094 L 14.199219 31.078125 L -0.789062 31.101562 C 5.046875 47.464844 8.660156 63.832031 11.160156 80.199219 C 11.824219 80.195312 12.488281 80.203125 13.144531 80.210938 C 14.007812 80.230469 14.859375 80.253906 15.714844 80.296875 C 18.960938 80.445312 22.132812 80.773438 25.25 81.269531 C 26.113281 81.410156 26.96875 81.5625 27.820312 81.722656 C 31.039062 82.347656 34.1875 83.160156 37.277344 84.160156 C 38.140625 84.4375 38.996094 84.730469 39.851562 85.046875 C 42.574219 86.039062 45.253906 87.183594 47.871094 88.472656 C 48.320312 88.695312 48.761719 88.921875 49.203125 89.144531 C 53.3125 91.265625 57.28125 93.765625 61.121094 96.652344 C 64.65625 93.980469 68.308594 91.628906 72.082031 89.609375 C 72.789062 89.230469 73.5 88.859375 74.207031 88.5 C 76.40625 87.398438 78.644531 86.40625 80.925781 85.511719 C 81.839844 85.160156 82.757812 84.816406 83.679688 84.492188 C 85.386719 83.898438 87.121094 83.363281 88.871094 82.894531 C 89.726562 82.65625 90.578125 82.441406 91.441406 82.242188 C 93.894531 81.664062 96.390625 81.199219 98.921875 80.84375 C 99.785156 80.726562 100.648438 80.617188 101.519531 80.527344 C 104.429688 80.214844 107.394531 80.046875 110.40625 80.023438 C 110.613281 80.023438 110.828125 80.023438 111.035156 80.023438 C 111.148438 79.242188 111.273438 78.460938 111.390625 77.679688 C 113.816406 62.082031 117.3125 46.488281 122.808594 30.886719 L 107.820312 30.914062 L 107.828125 35.082031 L 116.777344 35.066406 C 111.761719 48.355469 109.429688 61.894531 107.488281 75.457031 C 102.042969 75.609375 96.722656 76.390625 91.515625 77.738281 C 90.625 77.964844 89.734375 78.21875 88.847656 78.480469 C 85.011719 79.621094 81.25 81.0625 77.53125 82.796875 C 80.617188 80.300781 84.148438 78.488281 87.9375 77.089844 C 88.304688 76.953125 88.671875 76.820312 89.050781 76.691406 C 93.828125 75.050781 98.972656 73.988281 104.148438 72.964844 L 104.054688 20.316406 Z M 104.066406 20.308594 " fill-opacity="1" fill-rule="evenodd"/></g></g><g fill="#5170ff" fill-opacity="1"><g transform="translate(136.284739, 62.077416)"><g><path d="M 10.3125 -24.59375 L 10.3125 -23.890625 C 9.53125 -23.867188 8.9375 -23.78125 8.53125 -23.625 C 8.125 -23.476562 7.847656 -23.203125 7.703125 -22.796875 C 7.566406 -22.398438 7.5 -21.769531 7.5 -20.90625 L 7.5 -3.6875 C 7.5 -2.851562 7.566406 -2.226562 7.703125 -1.8125 C 7.847656 -1.394531 8.125 -1.117188 8.53125 -0.984375 C 8.9375 -0.859375 9.53125 -0.796875 10.3125 -0.796875 L 12.859375 -0.796875 C 13.941406 -0.796875 14.820312 -0.910156 15.5 -1.140625 C 16.1875 -1.378906 16.734375 -1.742188 17.140625 -2.234375 C 17.546875 -2.734375 17.851562 -3.398438 18.0625 -4.234375 C 18.269531 -5.066406 18.429688 -6.085938 18.546875 -7.296875 L 19.34375 -7.296875 C 19.28125 -6.578125 19.25 -5.628906 19.25 -4.453125 C 19.25 -4.003906 19.265625 -3.367188 19.296875 -2.546875 C 19.328125 -1.722656 19.390625 -0.875 19.484375 0 C 18.304688 -0.0390625 16.972656 -0.0664062 15.484375 -0.078125 C 14.003906 -0.0976562 12.6875 -0.109375 11.53125 -0.109375 C 11.019531 -0.109375 10.363281 -0.109375 9.5625 -0.109375 C 8.769531 -0.109375 7.910156 -0.0976562 6.984375 -0.078125 C 6.054688 -0.0664062 5.117188 -0.0546875 4.171875 -0.046875 C 3.222656 -0.0351562 2.316406 -0.0195312 1.453125 0 L 1.453125 -0.6875 C 2.242188 -0.738281 2.84375 -0.832031 3.25 -0.96875 C 3.65625 -1.113281 3.925781 -1.394531 4.0625 -1.8125 C 4.195312 -2.226562 4.265625 -2.851562 4.265625 -3.6875 L 4.265625 -20.90625 C 4.265625 -21.769531 4.195312 -22.398438 4.0625 -22.796875 C 3.925781 -23.203125 3.65625 -23.476562 3.25 -23.625 C 2.84375 -23.78125 2.242188 -23.867188 1.453125 -23.890625 L 1.453125 -24.59375 C 1.941406 -24.570312 2.578125 -24.546875 3.359375 -24.515625 C 4.148438 -24.492188 5 -24.484375 5.90625 -24.484375 C 6.71875 -24.484375 7.519531 -24.492188 8.3125 -24.515625 C 9.113281 -24.546875 9.78125 -24.570312 10.3125 -24.59375 Z M 10.3125 -24.59375 "/></g></g></g><g fill="#5170ff" fill-opacity="1"><g transform="translate(155.832124, 62.077416)"><g><path d="M 11.21875 -24.765625 L 19.6875 -2.921875 C 20.039062 -2.035156 20.4375 -1.445312 20.875 -1.15625 C 21.3125 -0.875 21.71875 -0.71875 22.09375 -0.6875 L 22.09375 0 C 21.625 -0.0390625 21.050781 -0.0664062 20.375 -0.078125 C 19.707031 -0.0976562 19.039062 -0.109375 18.375 -0.109375 C 17.46875 -0.109375 16.617188 -0.0976562 15.828125 -0.078125 C 15.046875 -0.0664062 14.410156 -0.0390625 13.921875 0 L 13.921875 -0.6875 C 15.109375 -0.738281 15.863281 -0.941406 16.1875 -1.296875 C 16.507812 -1.660156 16.441406 -2.429688 15.984375 -3.609375 L 9.515625 -20.875 L 10.078125 -21.328125 L 4.03125 -5.625 C 3.65625 -4.695312 3.429688 -3.914062 3.359375 -3.28125 C 3.296875 -2.644531 3.363281 -2.140625 3.5625 -1.765625 C 3.757812 -1.398438 4.09375 -1.132812 4.5625 -0.96875 C 5.039062 -0.8125 5.640625 -0.71875 6.359375 -0.6875 L 6.359375 0 C 5.710938 -0.0390625 5.035156 -0.0664062 4.328125 -0.078125 C 3.617188 -0.0976562 2.960938 -0.109375 2.359375 -0.109375 C 1.785156 -0.109375 1.296875 -0.0976562 0.890625 -0.078125 C 0.484375 -0.0664062 0.101562 -0.0390625 -0.25 0 L -0.25 -0.6875 C 0.21875 -0.8125 0.691406 -1.085938 1.171875 -1.515625 C 1.660156 -1.941406 2.101562 -2.675781 2.5 -3.71875 L 10.65625 -24.765625 C 10.75 -24.765625 10.84375 -24.765625 10.9375 -24.765625 C 11.03125 -24.765625 11.125 -24.765625 11.21875 -24.765625 Z M 15.453125 -10 L 15.453125 -9.3125 L 5.109375 -9.3125 L 5.453125 -10 Z M 15.453125 -10 "/></g></g></g><g fill="#5170ff" fill-opacity="1"><g transform="translate(176.837755, 62.077416)"><g><path d="M 31.5 -24.59375 L 31.5 -23.890625 C 31.0625 -23.804688 30.578125 -23.546875 30.046875 -23.109375 C 29.515625 -22.679688 29.085938 -21.9375 28.765625 -20.875 L 22.203125 0.171875 C 22.148438 0.171875 22.097656 0.171875 22.046875 0.171875 C 22.003906 0.171875 21.960938 0.171875 21.921875 0.171875 C 21.867188 0.171875 21.816406 0.171875 21.765625 0.171875 C 21.722656 0.171875 21.679688 0.171875 21.640625 0.171875 L 14.28125 -21.671875 C 13.976562 -22.578125 13.640625 -23.164062 13.265625 -23.4375 C 12.898438 -23.71875 12.550781 -23.867188 12.21875 -23.890625 L 12.21875 -24.59375 C 12.644531 -24.570312 13.171875 -24.546875 13.796875 -24.515625 C 14.421875 -24.492188 15.019531 -24.484375 15.59375 -24.484375 C 16.5 -24.484375 17.34375 -24.492188 18.125 -24.515625 C 18.914062 -24.546875 19.554688 -24.570312 20.046875 -24.59375 L 20.046875 -23.890625 C 19.347656 -23.867188 18.796875 -23.800781 18.390625 -23.6875 C 17.984375 -23.570312 17.75 -23.316406 17.6875 -22.921875 C 17.632812 -22.523438 17.75 -21.878906 18.03125 -20.984375 L 23.203125 -4.96875 L 22.71875 -4.546875 L 27.296875 -18.96875 C 27.710938 -20.238281 27.90625 -21.226562 27.875 -21.9375 C 27.84375 -22.644531 27.582031 -23.140625 27.09375 -23.421875 C 26.601562 -23.710938 25.875 -23.867188 24.90625 -23.890625 L 24.90625 -24.59375 C 25.570312 -24.570312 26.253906 -24.546875 26.953125 -24.515625 C 27.648438 -24.492188 28.300781 -24.484375 28.90625 -24.484375 C 29.5 -24.484375 29.992188 -24.492188 30.390625 -24.515625 C 30.785156 -24.546875 31.15625 -24.570312 31.5 -24.59375 Z M 7.21875 -24.59375 L 7.21875 -23.890625 C 6.625 -23.847656 6.191406 -23.734375 5.921875 -23.546875 C 5.648438 -23.359375 5.519531 -23.0625 5.53125 -22.65625 C 5.550781 -22.257812 5.675781 -21.703125 5.90625 -20.984375 L 11.28125 -4.546875 L 10.421875 -3.6875 L 15.28125 -19.203125 L 15.796875 -18.375 L 10.078125 0.171875 C 10.023438 0.171875 9.972656 0.171875 9.921875 0.171875 C 9.878906 0.171875 9.835938 0.171875 9.796875 0.171875 C 9.742188 0.171875 9.695312 0.171875 9.65625 0.171875 C 9.613281 0.171875 9.566406 0.171875 9.515625 0.171875 L 2.15625 -21.671875 C 1.851562 -22.578125 1.46875 -23.164062 1 -23.4375 C 0.539062 -23.71875 0.125 -23.867188 -0.25 -23.890625 L -0.25 -24.59375 C 0.21875 -24.570312 0.789062 -24.546875 1.46875 -24.515625 C 2.15625 -24.492188 2.820312 -24.484375 3.46875 -24.484375 C 4.238281 -24.484375 4.953125 -24.492188 5.609375 -24.515625 C 6.265625 -24.546875 6.800781 -24.570312 7.21875 -24.59375 Z M 7.21875 -24.59375 "/></g></g></g><g fill="#5170ff" fill-opacity="1"><g transform="translate(207.391483, 62.077416)"><g/></g></g><g fill="#5170ff" fill-opacity="1"><g transform="translate(215.16867, 62.077416)"><g><path d="M 1.453125 -24.59375 C 1.941406 -24.570312 2.578125 -24.546875 3.359375 -24.515625 C 4.148438 -24.492188 4.929688 -24.484375 5.703125 -24.484375 C 6.785156 -24.484375 7.820312 -24.492188 8.8125 -24.515625 C 9.8125 -24.546875 10.519531 -24.5625 10.9375 -24.5625 C 13.738281 -24.5625 15.832031 -23.921875 17.21875 -22.640625 C 18.613281 -21.367188 19.3125 -19.726562 19.3125 -17.71875 C 19.3125 -16.882812 19.171875 -16.007812 18.890625 -15.09375 C 18.617188 -14.175781 18.140625 -13.328125 17.453125 -12.546875 C 16.765625 -11.773438 15.832031 -11.144531 14.65625 -10.65625 C 13.476562 -10.175781 11.984375 -9.9375 10.171875 -9.9375 L 6.84375 -9.9375 L 6.84375 -10.625 L 9.828125 -10.625 C 11.472656 -10.625 12.726562 -10.9375 13.59375 -11.5625 C 14.46875 -12.1875 15.0625 -13.007812 15.375 -14.03125 C 15.6875 -15.050781 15.84375 -16.148438 15.84375 -17.328125 C 15.84375 -19.523438 15.40625 -21.164062 14.53125 -22.25 C 13.664062 -23.34375 12.179688 -23.890625 10.078125 -23.890625 C 9.003906 -23.890625 8.304688 -23.691406 7.984375 -23.296875 C 7.660156 -22.910156 7.5 -22.113281 7.5 -20.90625 L 7.5 -3.6875 C 7.5 -2.851562 7.585938 -2.226562 7.765625 -1.8125 C 7.941406 -1.394531 8.28125 -1.113281 8.78125 -0.96875 C 9.289062 -0.832031 10.035156 -0.738281 11.015625 -0.6875 L 11.015625 0 C 10.410156 -0.0390625 9.644531 -0.0664062 8.71875 -0.078125 C 7.789062 -0.0976562 6.851562 -0.109375 5.90625 -0.109375 C 5 -0.109375 4.148438 -0.0976562 3.359375 -0.078125 C 2.578125 -0.0664062 1.941406 -0.0390625 1.453125 0 L 1.453125 -0.6875 C 2.242188 -0.738281 2.84375 -0.832031 3.25 -0.96875 C 3.65625 -1.113281 3.925781 -1.394531 4.0625 -1.8125 C 4.195312 -2.226562 4.265625 -2.851562 4.265625 -3.6875 L 4.265625 -20.90625 C 4.265625 -21.769531 4.195312 -22.398438 4.0625 -22.796875 C 3.925781 -23.203125 3.65625 -23.476562 3.25 -23.625 C 2.84375 -23.78125 2.242188 -23.867188 1.453125 -23.890625 Z M 1.453125 -24.59375 "/></g></g></g><g fill="#5170ff" fill-opacity="1"><g transform="translate(234.611887, 62.077416)"><g><path d="M 10.3125 -24.59375 L 10.3125 -23.890625 C 9.53125 -23.867188 8.9375 -23.78125 8.53125 -23.625 C 8.125 -23.476562 7.847656 -23.203125 7.703125 -22.796875 C 7.566406 -22.398438 7.5 -21.769531 7.5 -20.90625 L 7.5 -3.6875 C 7.5 -2.851562 7.566406 -2.226562 7.703125 -1.8125 C 7.847656 -1.394531 8.125 -1.113281 8.53125 -0.96875 C 8.9375 -0.832031 9.53125 -0.738281 10.3125 -0.6875 L 10.3125 0 C 9.78125 -0.0390625 9.113281 -0.0664062 8.3125 -0.078125 C 7.519531 -0.0976562 6.71875 -0.109375 5.90625 -0.109375 C 5 -0.109375 4.148438 -0.0976562 3.359375 -0.078125 C 2.578125 -0.0664062 1.941406 -0.0390625 1.453125 0 L 1.453125 -0.6875 C 2.242188 -0.738281 2.84375 -0.832031 3.25 -0.96875 C 3.65625 -1.113281 3.925781 -1.394531 4.0625 -1.8125 C 4.195312 -2.226562 4.265625 -2.851562 4.265625 -3.6875 L 4.265625 -20.90625 C 4.265625 -21.769531 4.195312 -22.398438 4.0625 -22.796875 C 3.925781 -23.203125 3.65625 -23.476562 3.25 -23.625 C 2.84375 -23.78125 2.242188 -23.867188 1.453125 -23.890625 L 1.453125 -24.59375 C 1.941406 -24.570312 2.578125 -24.546875 3.359375 -24.515625 C 4.148438 -24.492188 5 -24.484375 5.90625 -24.484375 C 6.71875 -24.484375 7.519531 -24.492188 8.3125 -24.515625 C 9.113281 -24.546875 9.78125 -24.570312 10.3125 -24.59375 Z M 10.3125 -24.59375 "/></g></g></g><g fill="#5170ff" fill-opacity="1"><g transform="translate(245.513903, 62.077416)"><g><path d="M 10.3125 -24.59375 L 10.3125 -23.890625 C 9.53125 -23.867188 8.9375 -23.78125 8.53125 -23.625 C 8.125 -23.476562 7.847656 -23.203125 7.703125 -22.796875 C 7.566406 -22.398438 7.5 -21.769531 7.5 -20.90625 L 7.5 -3.6875 C 7.5 -2.851562 7.566406 -2.226562 7.703125 -1.8125 C 7.847656 -1.394531 8.125 -1.117188 8.53125 -0.984375 C 8.9375 -0.859375 9.53125 -0.796875 10.3125 -0.796875 L 12.859375 -0.796875 C 13.941406 -0.796875 14.820312 -0.910156 15.5 -1.140625 C 16.1875 -1.378906 16.734375 -1.742188 17.140625 -2.234375 C 17.546875 -2.734375 17.851562 -3.398438 18.0625 -4.234375 C 18.269531 -5.066406 18.429688 -6.085938 18.546875 -7.296875 L 19.34375 -7.296875 C 19.28125 -6.578125 19.25 -5.628906 19.25 -4.453125 C 19.25 -4.003906 19.265625 -3.367188 19.296875 -2.546875 C 19.328125 -1.722656 19.390625 -0.875 19.484375 0 C 18.304688 -0.0390625 16.972656 -0.0664062 15.484375 -0.078125 C 14.003906 -0.0976562 12.6875 -0.109375 11.53125 -0.109375 C 11.019531 -0.109375 10.363281 -0.109375 9.5625 -0.109375 C 8.769531 -0.109375 7.910156 -0.0976562 6.984375 -0.078125 C 6.054688 -0.0664062 5.117188 -0.0546875 4.171875 -0.046875 C 3.222656 -0.0351562 2.316406 -0.0195312 1.453125 0 L 1.453125 -0.6875 C 2.242188 -0.738281 2.84375 -0.832031 3.25 -0.96875 C 3.65625 -1.113281 3.925781 -1.394531 4.0625 -1.8125 C 4.195312 -2.226562 4.265625 -2.851562 4.265625 -3.6875 L 4.265625 -20.90625 C 4.265625 -21.769531 4.195312 -22.398438 4.0625 -22.796875 C 3.925781 -23.203125 3.65625 -23.476562 3.25 -23.625 C 2.84375 -23.78125 2.242188 -23.867188 1.453125 -23.890625 L 1.453125 -24.59375 C 1.941406 -24.570312 2.578125 -24.546875 3.359375 -24.515625 C 4.148438 -24.492188 5 -24.484375 5.90625 -24.484375 C 6.71875 -24.484375 7.519531 -24.492188 8.3125 -24.515625 C 9.113281 -24.546875 9.78125 -24.570312 10.3125 -24.59375 Z M 10.3125 -24.59375 "/></g></g></g><g fill="#5170ff" fill-opacity="1"><g transform="translate(265.061287, 62.077416)"><g><path d="M 12.890625 -25.078125 C 15.085938 -25.078125 17.015625 -24.578125 18.671875 -23.578125 C 20.328125 -22.585938 21.609375 -21.160156 22.515625 -19.296875 C 23.429688 -17.429688 23.890625 -15.164062 23.890625 -12.5 C 23.890625 -9.90625 23.421875 -7.632812 22.484375 -5.6875 C 21.546875 -3.75 20.242188 -2.234375 18.578125 -1.140625 C 16.910156 -0.0546875 15.003906 0.484375 12.859375 0.484375 C 10.648438 0.484375 8.71875 -0.0078125 7.0625 -1 C 5.40625 -2 4.117188 -3.4375 3.203125 -5.3125 C 2.296875 -7.1875 1.84375 -9.445312 1.84375 -12.09375 C 1.84375 -14.6875 2.316406 -16.953125 3.265625 -18.890625 C 4.210938 -20.835938 5.515625 -22.351562 7.171875 -23.4375 C 8.828125 -24.53125 10.734375 -25.078125 12.890625 -25.078125 Z M 12.75 -24.453125 C 11.238281 -24.453125 9.925781 -23.929688 8.8125 -22.890625 C 7.707031 -21.847656 6.847656 -20.410156 6.234375 -18.578125 C 5.617188 -16.753906 5.3125 -14.632812 5.3125 -12.21875 C 5.3125 -9.769531 5.648438 -7.632812 6.328125 -5.8125 C 7.015625 -4 7.941406 -2.597656 9.109375 -1.609375 C 10.285156 -0.628906 11.578125 -0.140625 12.984375 -0.140625 C 14.492188 -0.140625 15.800781 -0.660156 16.90625 -1.703125 C 18.019531 -2.742188 18.882812 -4.179688 19.5 -6.015625 C 20.113281 -7.859375 20.421875 -9.972656 20.421875 -12.359375 C 20.421875 -14.835938 20.078125 -16.976562 19.390625 -18.78125 C 18.710938 -20.59375 17.796875 -21.988281 16.640625 -22.96875 C 15.484375 -23.957031 14.1875 -24.453125 12.75 -24.453125 Z M 12.75 -24.453125 "/></g></g></g><g fill="#5170ff" fill-opacity="1"><g transform="translate(289.920877, 62.077416)"><g><path d="M 20.5625 -24.59375 C 20.46875 -23.707031 20.398438 -22.851562 20.359375 -22.03125 C 20.328125 -21.21875 20.3125 -20.585938 20.3125 -20.140625 C 20.3125 -19.585938 20.320312 -19.066406 20.34375 -18.578125 C 20.375 -18.097656 20.398438 -17.671875 20.421875 -17.296875 L 19.625 -17.296875 C 19.457031 -18.921875 19.234375 -20.203125 18.953125 -21.140625 C 18.679688 -22.078125 18.195312 -22.753906 17.5 -23.171875 C 16.8125 -23.585938 15.738281 -23.796875 14.28125 -23.796875 L 12.40625 -23.796875 L 12.40625 -4.03125 C 12.40625 -3.101562 12.488281 -2.40625 12.65625 -1.9375 C 12.832031 -1.476562 13.175781 -1.164062 13.6875 -1 C 14.195312 -0.84375 14.9375 -0.738281 15.90625 -0.6875 L 15.90625 0 C 15.300781 -0.0390625 14.535156 -0.0664062 13.609375 -0.078125 C 12.679688 -0.0976562 11.742188 -0.109375 10.796875 -0.109375 C 9.753906 -0.109375 8.773438 -0.0976562 7.859375 -0.078125 C 6.953125 -0.0664062 6.21875 -0.0390625 5.65625 0 L 5.65625 -0.6875 C 6.632812 -0.738281 7.378906 -0.84375 7.890625 -1 C 8.398438 -1.164062 8.738281 -1.476562 8.90625 -1.9375 C 9.082031 -2.40625 9.171875 -3.101562 9.171875 -4.03125 L 9.171875 -23.796875 L 7.296875 -23.796875 C 5.859375 -23.796875 4.785156 -23.585938 4.078125 -23.171875 C 3.367188 -22.753906 2.875 -22.078125 2.59375 -21.140625 C 2.320312 -20.203125 2.101562 -18.921875 1.9375 -17.296875 L 1.140625 -17.296875 C 1.191406 -17.671875 1.222656 -18.097656 1.234375 -18.578125 C 1.242188 -19.066406 1.25 -19.585938 1.25 -20.140625 C 1.25 -20.585938 1.226562 -21.21875 1.1875 -22.03125 C 1.15625 -22.851562 1.09375 -23.707031 1 -24.59375 C 1.976562 -24.570312 3.039062 -24.546875 4.1875 -24.515625 C 5.332031 -24.492188 6.484375 -24.484375 7.640625 -24.484375 C 8.796875 -24.484375 9.847656 -24.484375 10.796875 -24.484375 C 11.742188 -24.484375 12.789062 -24.484375 13.9375 -24.484375 C 15.09375 -24.484375 16.25 -24.492188 17.40625 -24.515625 C 18.5625 -24.546875 19.613281 -24.570312 20.5625 -24.59375 Z M 20.5625 -24.59375 "/></g></g></g></svg>